<svg xmlns="http://www.w3.org/2000/svg" xmlns:xlink="http://www.w3.org/1999/xlink" width="48" height="48" viewBox="0 0 48 48">
    <defs>
        <path id="prefix__a" d="M0 0L39.134 0 39.134 43.3 0 43.3z"/>
    </defs>
    <g fill="none" fill-rule="evenodd" transform="translate(4 2)">
        <mask id="prefix__b" fill="#fff">
            <use xlink:href="#prefix__a"/>
        </mask>
        <path fill="#000" d="M17.96 25.934c-.649 1.063-1.598 1.723-2.669 1.855-.801.101-1.508-.114-2.044-.617-.554-.518-.912-1.326-1.037-2.335-.363-2.925 1.045-5.341 3.274-5.619a3.12 3.12 0 01.814.002c1.3.18 2.218 1.235 2.421 2.867.173 1.396-.097 2.762-.759 3.848m17.096-2.845c-1.512 10.926-11.63 18.585-22.557 17.073a19.82 19.82 0 01-7.356-2.542 38.606 38.606 0 004.969-1.086c2.138.823 4.48 1.082 6.963.775 1.015-.127 4.138-.897 6.371-2.924l.184-.167-1.363-2.297-.272.205c-1.452 1.1-3.52 2.338-4.972 2.518a12.854 12.854 0 01-3.22.006 10.408 10.408 0 01-3.611-1.125c-2.857-1.52-4.67-4.28-5.103-7.774-.412-3.328.418-6.55 2.339-9.076 1.92-2.523 4.764-4.136 8.011-4.538 6.119-.76 10.473 1.996 11.097 7.02.155 1.258.112 2.512-.125 3.627-.504 2.363-1.785 3.896-3.428 4.1a1.675 1.675 0 01-.601-.024c-.537-.13-.699-.556-.74-.892a3.122 3.122 0 01-.017-.6l.857-9.28-3.144.39-.141 1.678c-.789-1.247-2.514-1.986-4.292-1.765-1.919.238-3.572 1.293-4.653 2.968-1.07 1.662-1.506 3.822-1.225 6.085.212 1.709.903 3.116 1.997 4.072 1.089.951 2.53 1.372 4.056 1.183 1.744-.217 3.23-1.19 3.967-2.573.182.38.47.718.848.986.751.535 1.815.762 2.919.627.194-.025.382-.058.568-.096 2.578-.527 4.58-2.446 5.499-5.27a38.284 38.284 0 005.723-9.054c.663 2.535.814 5.145.452 7.77M38.096.067a1.468 1.468 0 00-1.843.973l-2.041 6.617-3.877-6.465a1.473 1.473 0 00-2.526 1.514l5.199 8.67a35.534 35.534 0 01-3.665 7.447l-.015-.125c-.788-6.351-6.534-10.143-13.973-9.22-8.674 1.075-14.198 8.07-13.136 16.632.414 3.335 1.926 6.25 4.278 8.276a35.702 35.702 0 01-5.439.674l-.205.01L0 37.503l.154.136a22.86 22.86 0 0011.942 5.441c12.535 1.734 24.143-7.053 25.877-19.588a22.875 22.875 0 00-1.739-12.4l2.834-9.184a1.474 1.474 0 00-.972-1.842" mask="url(#prefix__b)"/>
    </g>
</svg>
